<?xml version="1.0" encoding="UTF-8"?>
<svg id="Camada_1" xmlns="http://www.w3.org/2000/svg" version="1.1" viewBox="0 0 328.6 87.1">
  <!-- Generator: Adobe Illustrator 29.0.0, SVG Export Plug-In . SVG Version: 2.1.0 Build 186)  -->
  <defs>
    <style>
      .st0 {
        fill: #00fea9;
      }

      .st1 {
        fill: #fff;
      }
    </style>
  </defs>
  <g id="_x33_SM2Ym.tif">
    <g>
      <path class="st1" d="M142.3,30.8l6.7-14.6c.5-1,3.1-1.2,3.6-.3.5.9,1,5.6,1.3,6.9s1.1,10.5,1.7,11,1.1-.3,1.5-.3c1.2,0,2.9,4.1.2,5.1-7.7,2.9-7.7-5.9-8.4-10.8l-4.4,10.1c-.9.9-2.5,1.1-3.7.4s-3.8-9.3-4.8-11.1l-1.5,10.8c-.7,1-5.6,1.3-5.7-.8.9-2.6,2.3-20.8,3.5-21.6s2.8-.4,3.4.6l6.7,14.6h-.1Z"/>
      <path class="st1" d="M162,19.5c6.8-7.8,21.8-4.5,22.7,6.3.9,11.2-11.4,16.9-20.4,11s-6.8-12.1-2.3-17.3ZM166.9,22.7c-3,3.4-1.1,9.8,3.4,10.7,10.2,1.9,10.9-13.2,1.2-12.8s-3.8,1.1-4.7,2.1h.1Z"/>
      <path class="st1" d="M264.4,17.8c5.8,4.4,5.9,13.4.5,18.1-7.3,6.4-20.7,2.6-21.5-7.6-1-11.5,12.5-17.1,21-10.5ZM254.8,20.7c-7.2,1.1-6.9,11.8,0,12.7,10.6,1.4,10.1-14.2,0-12.7Z"/>
      <path class="st1" d="M203.2,28.2v-11.7c0-1,5.5-1.4,5.9,0v20.3c-.1,2.2-2.9,2.3-4.4,1.1l-10.4-12.2v11.7c0,1.2-5.4,1.8-5.9.3V15.9c1.2-.7,2.8-1,3.9-.1,3.9,3.9,7,8.5,10.9,12.3h0Z"/>
      <path class="st1" d="M278.4,37.3c-.5,2.1-5.7,2-6.2.3v-20.6c.2-.6.4-1.1,1.1-1.2,2-.4,8.7-.2,10.9,0,8,.6,10.1,10.5,2.8,13.7,1.2.6,1.9,3.9,2.6,4.3s1.3-.2,1.8,0c.9.2,2.3,3.7,1.3,4.5-1.6,1.4-5,1.3-6.6,0-2.9-2.6-2.7-8.8-7.7-7.8-.3,2,.4,5.2,0,7.1h0ZM278.4,25.9h5.1c2.1,0,2.1-5.3,0-5.3h-5.1v5.3Z"/>
      <path class="st1" d="M235.7,20.7v17.3c0,1.1-6,1.3-6-.3v-16.9h-6.1c-1.2,0-1.8-4.2-.3-4.9,5.7.3,12.3-.6,17.8,0,3.4.3,1.5,5,.6,5h-6.1v-.2Z"/>
      <path class="st1" d="M214.7,15.8c.5-.2,4.1-.2,4.5,0s.8.9.9,1.4c.5,3.4.4,15.8,0,19.4-.4,3.2-5.9,2.9-6.3.3.5-6.1-.7-13.4,0-19.4s.2-1.5.9-1.7h0Z"/>
    </g>
  </g>
  <g id="aNT5G0.tif">
    <g>
      <path class="st0" d="M284.3,47.3c18.3-1.7,19,26.9-1.8,24-13.4-1.9-13.5-22.6,1.8-24ZM280.9,64.3c6.2,5.7,15.6-4,9-9.8-6.8-5.9-15.1,4.2-9,9.8Z"/>
      <path class="st0" d="M308,69.3c0,0-.5,1.2-.5,1.3-.5.6-6,1-5.9-1,.2-6.1-.6-13,0-19,.3-3,1.9-4,4.5-2.3l10.7,12.3v-11.7c0-1.1,5.7-1.6,6.1,0-.3,6.4.7,13.5,0,19.8-.7,6.3-2.3,3.4-4.6,2l-10.3-11.9c-.4,3.2.5,7.6,0,10.6h0Z"/>
      <path class="st1" d="M195.7,48c1-.3,4.5-.3,5,.6.9,1.9-.4,10.8.3,13.8,1,4.8,8.3,4.4,9.3.4.7-2.9-.7-12.7.5-14.3s5.5-1.4,5.8,1,.2,10.4-.1,13.3c-1.5,11.6-20.6,12.2-21.7-1.3-.1-1.6-.2-12,.2-12.8s.5-.6.8-.6h-.1Z"/>
      <path class="st1" d="M174.8,65.9c.2,0,1,3.7,1,4-.6,2-4.6,1.9-6.2,1.1s-2.7-3.6-3-3.6c-.6,0-8.4,0-8.9,0s-.7,3.3-2.6,3.6c-1.5.3-5.9.6-4.8-1.9,3.6-5.9,5.9-14.5,9.6-20s3-2.2,4.6-.4l7.8,17.1c.4.8,2.1-.2,2.5.2h0ZM159.2,63h5.8c-1-1.8-1.5-3.9-2.4-5.8s0-.9-.7-.7-2.2,5.7-2.7,6.5h0Z"/>
      <path class="st1" d="M232,48.4l7.8,17c.9,1.5,1.3.4,2.2.6s2.4,4.5.3,5.2c-3.5,1.2-6.7-.3-7.9-3.8-1.6.3-8.6-.5-9.4.4s-.8,2.7-1.6,3.1-4.4.3-5.1,0-.4-1.2-.2-2c2.2-6.4,6.9-13.1,9.3-19.6,1.2-1.8,2.9-2.3,4.5-.8h0ZM227.1,63h5.4c-.2-.8-2-6.5-2.4-6.5-.7,0-.7.4-.9.9-.8,1.8-1.4,3.8-2.2,5.6h0Z"/>
      <path class="st1" d="M142.2,62.3l6-13.7c1-1.1,7.2-1.6,5.9,1.2-3.7,5.6-5.9,15.2-9.6,20.4-.9,1.3-2,1.6-3.5.8-3.4-5.7-5.9-11.9-8.6-17.9-2.5.6-3.6-1.2-3.6-3.5s4.4-2.5,6.2-1.8c3.6,1.6,5.8,10.9,7.3,14.6h0Z"/>
      <path class="st1" d="M253.2,52.9v17.5c0,.7-6.2,1.2-6.2-.7v-16.8h-5.6c-1.7,0-2.2-4.1-.7-5,5.7.3,12.2-.6,17.7,0,3.4.3,2.1,5.1.7,5.1h-6,0Z"/>
      <path class="st1" d="M183.9,65.9h8.2c2,0,1.2,5,.9,5h-14.3c-.4,0-.9-1.5-.9-2-.7-6.1.5-13.5,0-19.8,0-2.2,6.1-1.5,6.1-.4v17.1h0Z"/>
      <path class="st1" d="M264,48c1.1-.3,5.1-.5,5.2,1.2v20.2c.2,2.3-5.8,2.3-6.1.3l.2-21.1c.2-.3.4-.5.8-.6h-.1Z"/>
    </g>
  </g>
  <path class="st0" d="M75.8,63.9c-1.5,1.5-5.8,6.4-7.5,7s-6.8.5-8.6.4c-8.6-.8-2.4-12.2-6-16.4-1.7-1.9-4.5-2.3-6.6-.7-3.9,3-8.6,9-12.2,12.7-1.9,1.9-3.5,4.1-6.2,4.4-5.9.5-12.6-.4-18.6,0-2.4-.6-3.8-2.2-4.1-4.6s-.4-13.3,0-16.6,2.3-4.4,5-4.6,7.1.9,9.7-1.2c7.8-7.9,15.1-16.5,23-24.4,1.1-1.1,3.5-3.9,5-4.2,2.9-.7,6,.9,6.4,4,.5,4.3-.4,9.5,0,13.9s4.9,6.2,8.3,3.5l20.3-20.9c3.2-1.7,9.5-1.4,10.1,3.1s-.6,14.6,0,21.2,1.8,4.5,4.2,4.8c3.6.5,11.8-.9,14.5.9s2,2.3,2.1,3.7c.5,5.6-.3,12.1,0,17.8-.6,2-2.2,3.5-4.3,3.7-2.6.3-9.2.3-11.8,0-8.5-.9-1.9-13.6-6.1-17.4-1.8-1.6-4.5-1.6-6.4-.2-3,2.2-7.1,7.4-9.9,10.3l-.2-.2Z"/>
</svg>
